<?xml version="1.0" standalone="no"?>
<!DOCTYPE svg PUBLIC "-//W3C//DTD SVG 20010904//EN"
 "http://www.w3.org/TR/2001/REC-SVG-20010904/DTD/svg10.dtd">
<svg version="1.0" xmlns="http://www.w3.org/2000/svg"
 width="500px" height="500px" 
 preserveAspectRatio="xMidYMid meet">

<g transform="translate(0.000000,500) scale(0.100000,-0.100000)"
fill="#000000" stroke="none">
<path d="M2255 3535 c-176 -102 -328 -195 -337 -207 -17 -18 -18 -53 -18 -417
1 -309 3 -400 14 -413 15 -20 640 -386 675 -395 30 -8 49 2 346 174 137 80
270 156 294 170 84 48 81 41 81 242 0 213 -1 216 -80 176 -85 -43 -90 -51 -90
-158 0 -59 -5 -99 -12 -109 -21 -27 -496 -298 -522 -298 -26 0 -503 271 -523
298 -10 12 -13 91 -13 317 0 275 2 303 18 317 40 35 495 291 517 291 23 0 478
-256 517 -290 15 -13 18 -38 20 -156 4 -171 9 -178 91 -133 28 16 58 33 65 39
9 7 12 53 12 167 0 136 -2 161 -17 179 -10 11 -162 104 -338 206 -224 130
-329 185 -350 185 -22 0 -126 -55 -350 -185z m688 -16 c172 -99 320 -188 330
-196 15 -14 17 -36 17 -169 l0 -152 -50 -31 c-81 -50 -80 -51 -80 108 0 118
-3 142 -17 159 -31 37 -505 305 -538 305 -33 0 -506 -268 -537 -305 -16 -18
-18 -49 -18 -327 0 -230 3 -311 13 -324 22 -29 512 -307 542 -307 18 0 115 50
269 140 133 76 250 146 261 154 17 12 21 29 25 122 l5 108 55 33 c30 18 58 33
63 33 4 0 7 -80 7 -179 0 -131 -3 -181 -12 -189 -38 -31 -656 -382 -673 -382
-23 0 -654 363 -672 388 -10 12 -13 110 -13 408 0 349 2 393 16 405 9 8 157
96 328 196 196 115 321 182 339 183 19 0 131 -60 340 -181z"/>
<path d="M2570 3434 c-19 -8 -112 -60 -208 -116 -183 -106 -207 -129 -181
-168 22 -32 389 -240 424 -240 20 0 76 26 159 75 71 41 130 75 132 75 2 0 4
-73 4 -162 l0 -163 -135 -77 c-74 -43 -146 -78 -160 -78 -14 0 -87 35 -161 78
l-134 77 0 118 c0 134 -2 137 -89 182 -59 30 -55 29 -75 9 -23 -22 -24 -369
-1 -400 21 -32 427 -264 460 -264 33 0 439 232 460 264 12 16 15 66 15 261 0
132 -3 250 -6 263 -6 21 -127 102 -153 102 -5 0 -65 -32 -133 -71 -182 -107
-175 -105 -245 -68 -32 17 -62 34 -66 38 -9 9 72 63 111 75 13 4 36 0 56 -9
35 -17 36 -17 100 19 35 20 66 43 70 51 8 21 -19 46 -95 88 -96 53 -110 57
-149 41z m144 -62 c44 -26 79 -51 79 -57 0 -5 -25 -25 -56 -43 -54 -32 -56
-33 -86 -18 -16 9 -38 16 -48 16 -27 0 -147 -74 -151 -92 -4 -22 113 -92 153
-92 19 0 80 30 172 83 l143 83 64 -36 c35 -20 67 -43 70 -52 9 -22 7 -497 -2
-511 -12 -19 -422 -253 -443 -253 -11 0 -34 7 -52 16 -80 42 -393 227 -399
238 -12 18 -10 374 2 381 6 4 37 -9 68 -27 l57 -34 3 -119 c1 -65 7 -124 13
-131 13 -15 266 -160 294 -168 15 -4 55 14 130 57 61 35 129 74 152 88 l43 24
0 184 c0 162 -2 182 -16 177 -8 -3 -73 -40 -144 -81 -72 -42 -140 -75 -155
-75 -25 0 -372 194 -405 226 -11 11 -12 19 -4 32 19 29 375 232 409 232 18 0
61 -19 109 -48z"/>
<path d="M1108 1741 c-31 -28 -33 -33 -33 -101 0 -68 2 -73 33 -101 32 -28 34
-29 147 -29 108 0 115 -1 115 -20 0 -19 -7 -20 -144 -20 -122 0 -145 -2 -150
-16 -10 -26 -7 -69 6 -82 16 -16 307 -17 343 0 36 16 55 57 55 118 0 61 -19
102 -55 118 -15 7 -72 12 -135 12 -103 0 -110 1 -110 20 0 18 8 20 148 22
l147 3 3 44 c2 28 -1 47 -10 52 -7 5 -84 9 -170 9 l-158 0 -32 -29z m352 -26
l0 -35 -150 0 -150 0 0 -40 0 -40 125 0 c120 0 127 -1 150 -25 21 -20 25 -34
25 -83 0 -44 -5 -66 -19 -83 -19 -23 -25 -24 -185 -27 l-166 -3 0 35 0 36 150
0 150 0 0 40 0 40 -122 0 c-133 1 -149 6 -168 54 -21 57 -5 136 33 154 12 6
89 11 175 11 l152 1 0 -35z"/>
<path d="M1568 1754 c-15 -8 -32 -23 -38 -34 -6 -10 -10 -90 -10 -183 0 -179
-1 -177 59 -177 41 0 51 17 51 87 l0 63 95 0 95 0 0 -70 c0 -66 1 -70 25 -76
14 -3 36 -3 50 0 l25 6 0 171 0 171 -29 29 -29 29 -134 0 c-98 -1 -140 -5
-160 -16z m295 -15 c12 -7 25 -17 29 -23 4 -6 8 -84 8 -173 l0 -163 -30 0 -30
0 0 75 0 75 -115 0 -115 0 0 -75 0 -75 -35 0 -35 0 0 160 c0 157 1 161 25 185
23 24 30 25 150 25 76 0 135 -5 148 -11z"/>
<path d="M1980 1750 c-18 -18 -20 -33 -20 -193 0 -186 3 -197 51 -197 57 0 59
3 59 118 l0 106 114 -113 c98 -97 118 -112 138 -106 13 4 28 11 33 17 15 14
19 356 4 374 -12 14 -55 19 -83 8 -13 -5 -16 -25 -16 -112 l0 -106 -113 112
c-63 62 -121 112 -130 112 -10 0 -26 -9 -37 -20z m165 -120 c66 -66 123 -120
127 -120 5 0 8 54 8 120 l0 120 35 0 35 0 0 -169 c0 -141 -3 -172 -16 -185 -8
-9 -19 -16 -22 -16 -4 0 -61 54 -127 120 -66 66 -123 120 -127 120 -5 0 -8
-54 -8 -120 l0 -120 -35 0 -35 0 0 173 c0 171 5 197 35 197 6 0 64 -54 130
-120z"/>
<path d="M2438 1741 l-33 -29 0 -146 0 -146 28 -27 c27 -28 29 -28 179 -31
198 -5 200 -4 196 56 l-3 47 -147 3 -148 3 0 94 0 94 148 3 147 3 3 44 c2 28
-1 47 -10 52 -7 5 -84 9 -170 9 l-158 0 -32 -29z m352 -26 l0 -35 -150 0 -150
0 0 -115 0 -115 150 0 150 0 0 -35 0 -35 -150 0 c-90 0 -159 4 -174 11 -35 16
-46 57 -46 174 0 114 11 157 43 173 12 6 89 11 175 11 l152 1 0 -35z"/>
<path d="M2863 1763 c-10 -3 -13 -53 -13 -198 0 -210 -1 -205 59 -205 41 0 51
17 51 87 l0 63 90 0 90 0 0 -63 c0 -70 10 -87 51 -87 60 0 59 -5 59 205 0 210
1 205 -59 205 -41 0 -51 -17 -51 -87 l0 -63 -90 0 -90 0 0 63 c0 36 -5 68 -12
75 -12 12 -62 15 -85 5z m69 -85 l3 -73 113 -3 112 -3 0 76 0 75 35 0 35 0 0
-185 0 -185 -35 0 -35 0 0 75 0 75 -115 0 -115 0 0 -75 0 -75 -30 0 -30 0 0
185 0 185 30 0 29 0 3 -72z"/>
<path d="M3341 1756 c-43 -24 -50 -52 -51 -188 0 -202 7 -208 232 -208 166 0
178 3 178 51 0 59 0 59 -156 59 -137 0 -144 1 -144 20 0 19 7 20 138 20 149 0
162 4 162 51 0 59 0 59 -156 59 -137 0 -144 1 -144 20 0 19 7 20 144 20 122 0
145 2 150 16 10 26 7 69 -6 82 -18 18 -315 16 -347 -2z m339 -41 l0 -35 -150
0 -150 0 0 -40 0 -40 150 0 150 0 0 -35 0 -35 -150 0 -150 0 0 -40 0 -40 150
0 150 0 0 -35 0 -35 -150 0 c-157 0 -200 9 -214 45 -3 9 -6 75 -6 146 0 125 1
131 25 154 24 24 28 25 185 25 l160 0 0 -35z"/>
<path d="M3768 1741 c-31 -28 -33 -33 -33 -101 0 -68 2 -73 33 -101 32 -28 34
-29 147 -29 108 0 115 -1 115 -20 0 -19 -7 -20 -144 -20 -122 0 -145 -2 -150
-16 -10 -26 -7 -69 6 -82 16 -16 307 -17 343 0 36 16 55 57 55 118 0 61 -19
102 -55 118 -15 7 -72 12 -135 12 -103 0 -110 1 -110 20 0 18 8 20 148 22
l147 3 3 44 c2 28 -1 47 -10 52 -7 5 -84 9 -170 9 l-158 0 -32 -29z m352 -26
l0 -35 -150 0 -150 0 0 -40 0 -40 125 0 c120 0 127 -1 150 -25 21 -20 25 -34
25 -83 0 -44 -5 -66 -19 -83 -19 -23 -25 -24 -185 -27 l-166 -3 0 35 0 36 150
0 150 0 0 40 0 40 -122 0 c-133 1 -149 6 -168 54 -21 57 -5 136 33 154 12 6
89 11 175 11 l152 1 0 -35z"/>
</g>
</svg>
